<mxfile host="app.diagrams.net" modified="2021-05-13T23:20:14.838Z" agent="5.0 (Windows NT 10.0; Win64; x64) AppleWebKit/537.36 (KHTML, like Gecko) Chrome/90.0.4430.212 Safari/537.36" etag="rTF8VchCeyJS5y7z1b_n" version="14.6.11" type="github">
  <diagram id="wFE0QG_FPsp0jaGvCLVb" name="Page-1">
    <mxGraphModel dx="1422" dy="794" grid="1" gridSize="10" guides="1" tooltips="1" connect="1" arrows="1" fold="1" page="1" pageScale="1" pageWidth="850" pageHeight="1100" math="0" shadow="0">
      <root>
        <mxCell id="0" />
        <mxCell id="1" parent="0" />
        <mxCell id="_5mSTuPxr-ZiKRkBDSY7-1" value="" style="swimlane;fontStyle=2;childLayout=stackLayout;horizontal=1;startSize=28;horizontalStack=1;resizeParent=1;resizeParentMax=0;resizeLast=0;collapsible=0;marginBottom=0;swimlaneFillColor=none;fontFamily=Permanent Marker;fontSize=16;points=[];verticalAlign=top;stackBorder=0;resizable=1;strokeWidth=2;sketch=1;disableMultiStroke=1;" parent="1" vertex="1">
          <mxGeometry x="160" y="80" width="1080" height="750" as="geometry" />
        </mxCell>
        <object label="Sprint I" status="New" id="_5mSTuPxr-ZiKRkBDSY7-2">
          <mxCell style="swimlane;strokeWidth=2;fontFamily=Courier New;html=0;startSize=1;verticalAlign=bottom;spacingBottom=5;points=[];childLayout=stackLayout;stackBorder=20;stackSpacing=20;resizeLast=0;resizeParent=1;horizontalStack=0;collapsible=0;sketch=1;strokeColor=none;fillStyle=solid;fillColor=#A0522D;" parent="_5mSTuPxr-ZiKRkBDSY7-1" vertex="1">
            <mxGeometry y="28" width="180" height="722" as="geometry" />
          </mxCell>
        </object>
        <object label="&lt;font style=&quot;font-size: 12px&quot;&gt;&lt;span&gt;Developer team needs a&lt;br&gt;     process by which to make changes in our repository.&lt;br&gt;&lt;/span&gt;&lt;/font&gt;" placeholders="1" id="_5mSTuPxr-ZiKRkBDSY7-3">
          <mxCell style="whiteSpace=wrap;html=1;strokeWidth=2;fillColor=#d5e8d4;fontStyle=1;spacingTop=0;rounded=1;arcSize=9;points=[];sketch=1;fontFamily=Courier New;hachureGap=8;fillWeight=1;strokeColor=#82b366;fillStyle=solid;" parent="_5mSTuPxr-ZiKRkBDSY7-2" vertex="1">
            <mxGeometry x="20" y="21" width="140" height="80" as="geometry" />
          </mxCell>
        </object>
        <object label="Developer&lt;br&gt;team needs to build the application in a consistent environment." placeholders="1" id="_5mSTuPxr-ZiKRkBDSY7-4">
          <mxCell style="whiteSpace=wrap;html=1;strokeWidth=2;fillColor=#d5e8d4;fontStyle=1;spacingTop=0;rounded=1;arcSize=9;points=[];sketch=1;fontFamily=Courier New;hachureGap=8;fillWeight=1;strokeColor=#82b366;fillStyle=solid;" parent="_5mSTuPxr-ZiKRkBDSY7-2" vertex="1">
            <mxGeometry x="20" y="121" width="140" height="80" as="geometry" />
          </mxCell>
        </object>
        <object label="Users&lt;br&gt;need to be able to navigate to the sugar quiz." placeholders="1" id="_5mSTuPxr-ZiKRkBDSY7-5">
          <mxCell style="whiteSpace=wrap;html=1;strokeWidth=2;fillColor=#d5e8d4;fontStyle=1;spacingTop=0;rounded=1;arcSize=9;points=[];sketch=1;fontFamily=Courier New;hachureGap=8;fillWeight=1;strokeColor=#82b366;fillStyle=solid;" parent="_5mSTuPxr-ZiKRkBDSY7-2" vertex="1">
            <mxGeometry x="20" y="221" width="140" height="80" as="geometry" />
          </mxCell>
        </object>
        <object label="&lt;span&gt;Potential users need to&lt;br&gt;     provide input for application development.&lt;br&gt;&lt;/span&gt;" placeholders="1" id="hzokEQ0apqbDC5ZF1zKa-46">
          <mxCell style="whiteSpace=wrap;html=1;strokeWidth=2;fillColor=#d5e8d4;fontStyle=1;spacingTop=0;rounded=1;arcSize=9;points=[];sketch=1;fontFamily=Courier New;hachureGap=8;fillWeight=1;strokeColor=#82b366;fillStyle=solid;" parent="_5mSTuPxr-ZiKRkBDSY7-2" vertex="1">
            <mxGeometry x="20" y="321" width="140" height="80" as="geometry" />
          </mxCell>
        </object>
        <object label="Sprint II" status="In progress" id="_5mSTuPxr-ZiKRkBDSY7-6">
          <mxCell style="swimlane;strokeWidth=2;fontFamily=Courier New;html=0;startSize=1;verticalAlign=bottom;spacingBottom=5;points=[];childLayout=stackLayout;stackBorder=20;stackSpacing=20;resizeLast=0;resizeParent=1;horizontalStack=0;collapsible=0;sketch=1;strokeColor=none;fillStyle=solid;fillColor=#006600;" parent="_5mSTuPxr-ZiKRkBDSY7-1" vertex="1">
            <mxGeometry x="180" y="28" width="180" height="722" as="geometry" />
          </mxCell>
        </object>
        <object label="&lt;font style=&quot;font-size: 12px&quot;&gt;Developer&lt;br/&gt;team needs to be to store documentation.&lt;br&gt;&lt;/font&gt;" placeholders="1" id="_5mSTuPxr-ZiKRkBDSY7-7">
          <mxCell style="whiteSpace=wrap;html=1;strokeWidth=2;fillColor=#dae8fc;fontStyle=1;spacingTop=0;rounded=1;arcSize=9;points=[];sketch=1;fontFamily=Courier New;hachureGap=8;fillWeight=1;strokeColor=#6c8ebf;align=center;fillStyle=solid;" parent="_5mSTuPxr-ZiKRkBDSY7-6" vertex="1">
            <mxGeometry x="20" y="21" width="140" height="80" as="geometry" />
          </mxCell>
        </object>
        <object label="&lt;font&gt;&lt;span&gt;&lt;font style=&quot;font-size: 12px&quot;&gt;Developer team needs a model&lt;br&gt;     to base application on.&lt;br&gt;&lt;/font&gt;&lt;/span&gt;&lt;/font&gt;" placeholders="1" id="i4JEPYIXqA7OoXjIHl6u-21">
          <mxCell style="whiteSpace=wrap;html=1;strokeWidth=2;fillColor=#dae8fc;fontStyle=1;spacingTop=0;rounded=1;arcSize=9;points=[];sketch=1;fontFamily=Courier New;hachureGap=8;fillWeight=1;strokeColor=#6c8ebf;align=center;fillStyle=solid;" parent="_5mSTuPxr-ZiKRkBDSY7-6" vertex="1">
            <mxGeometry x="20" y="121" width="140" height="80" as="geometry" />
          </mxCell>
        </object>
        <object label="&lt;font style=&quot;font-size: 12px&quot;&gt;Users&lt;br/&gt;need to be represented in development tasks.&lt;br&gt;&lt;/font&gt;" placeholders="1" id="i4JEPYIXqA7OoXjIHl6u-20">
          <mxCell style="whiteSpace=wrap;html=1;strokeWidth=2;fillColor=#dae8fc;fontStyle=1;spacingTop=0;rounded=1;arcSize=9;points=[];sketch=1;fontFamily=Courier New;hachureGap=8;fillWeight=1;strokeColor=#6c8ebf;align=center;fillStyle=solid;" parent="_5mSTuPxr-ZiKRkBDSY7-6" vertex="1">
            <mxGeometry x="20" y="221" width="140" height="80" as="geometry" />
          </mxCell>
        </object>
        <object label="&lt;font&gt;&lt;span&gt;&lt;font style=&quot;font-size: 12px&quot;&gt;Users need to be able to&lt;br&gt;     answer quiz questions.&lt;br&gt;&lt;/font&gt;&lt;/span&gt;&lt;/font&gt;" placeholders="1" id="i4JEPYIXqA7OoXjIHl6u-19">
          <mxCell style="whiteSpace=wrap;html=1;strokeWidth=2;fillColor=#dae8fc;fontStyle=1;spacingTop=0;rounded=1;arcSize=9;points=[];sketch=1;fontFamily=Courier New;hachureGap=8;fillWeight=1;strokeColor=#6c8ebf;align=center;fillStyle=solid;" parent="_5mSTuPxr-ZiKRkBDSY7-6" vertex="1">
            <mxGeometry x="20" y="321" width="140" height="80" as="geometry" />
          </mxCell>
        </object>
        <object label="&lt;font&gt;&lt;span&gt;&lt;font style=&quot;font-size: 12px&quot;&gt;Developer team needs a model&lt;br&gt;     to base application on.&lt;br&gt;&lt;/font&gt;&lt;/span&gt;&lt;/font&gt;" placeholders="1" id="hzokEQ0apqbDC5ZF1zKa-50">
          <mxCell style="whiteSpace=wrap;html=1;strokeWidth=2;fontStyle=1;spacingTop=0;rounded=1;arcSize=9;points=[];sketch=1;fontFamily=Courier New;hachureGap=8;fillWeight=1;align=center;fillColor=none;strokeColor=none;noLabel=1;fontColor=none;" parent="_5mSTuPxr-ZiKRkBDSY7-6" vertex="1">
            <mxGeometry x="20" y="421" width="140" height="80" as="geometry" />
          </mxCell>
        </object>
        <object label="&lt;font style=&quot;font-size: 12px&quot;&gt;Users&lt;br/&gt;need to be represented in development tasks.&lt;br&gt;&lt;/font&gt;" placeholders="1" id="hzokEQ0apqbDC5ZF1zKa-51">
          <mxCell style="whiteSpace=wrap;html=1;strokeWidth=2;fontStyle=1;spacingTop=0;rounded=1;arcSize=9;points=[];sketch=1;fontFamily=Courier New;hachureGap=8;fillWeight=1;strokeColor=#6c8ebf;align=center;fillStyle=solid;fillColor=#dae8fc;" parent="_5mSTuPxr-ZiKRkBDSY7-6" vertex="1">
            <mxGeometry x="20" y="521" width="140" height="80" as="geometry" />
          </mxCell>
        </object>
        <object label="&lt;font&gt;&lt;span&gt;&lt;font style=&quot;font-size: 12px&quot;&gt;Users need to be able to&lt;br&gt;     answer quiz questions.&lt;br&gt;&lt;/font&gt;&lt;/span&gt;&lt;/font&gt;" placeholders="1" id="hzokEQ0apqbDC5ZF1zKa-52">
          <mxCell style="whiteSpace=wrap;html=1;strokeWidth=2;fontStyle=1;spacingTop=0;rounded=1;arcSize=9;points=[];sketch=1;fontFamily=Courier New;hachureGap=8;fillWeight=1;strokeColor=#6c8ebf;align=center;fillStyle=solid;fillColor=#dae8fc;" parent="_5mSTuPxr-ZiKRkBDSY7-6" vertex="1">
            <mxGeometry x="20" y="621" width="140" height="80" as="geometry" />
          </mxCell>
        </object>
        <object label="Sprint III" status="Completed" id="_5mSTuPxr-ZiKRkBDSY7-9">
          <mxCell style="swimlane;strokeWidth=2;fontFamily=Courier New;html=0;startSize=1;verticalAlign=bottom;spacingBottom=5;points=[];childLayout=stackLayout;stackBorder=20;stackSpacing=20;resizeLast=0;resizeParent=1;horizontalStack=0;collapsible=0;sketch=1;strokeColor=none;fillStyle=solid;fillColor=#1BA1E2;" parent="_5mSTuPxr-ZiKRkBDSY7-1" vertex="1">
            <mxGeometry x="360" y="28" width="180" height="722" as="geometry" />
          </mxCell>
        </object>
        <object label="Users&amp;nbsp;need to be able to access data from the database." placeholders="1" id="_5mSTuPxr-ZiKRkBDSY7-10">
          <mxCell style="whiteSpace=wrap;html=1;strokeWidth=2;fillColor=#ffe6cc;fontStyle=1;spacingTop=0;rounded=1;arcSize=9;points=[];sketch=1;fontFamily=Courier New;hachureGap=8;fillWeight=1;strokeColor=#d79b00;fillStyle=solid;" parent="_5mSTuPxr-ZiKRkBDSY7-9" vertex="1">
            <mxGeometry x="20" y="21" width="140" height="80" as="geometry" />
          </mxCell>
        </object>
        <object label="Development&lt;br/&gt;team needs a plan for completing the final write up." placeholders="1" id="hzokEQ0apqbDC5ZF1zKa-53">
          <mxCell style="whiteSpace=wrap;html=1;strokeWidth=2;fillColor=#ffe6cc;fontStyle=1;spacingTop=0;rounded=1;arcSize=9;points=[];sketch=1;fontFamily=Courier New;hachureGap=8;fillWeight=1;strokeColor=#d79b00;fillStyle=solid;" parent="_5mSTuPxr-ZiKRkBDSY7-9" vertex="1">
            <mxGeometry x="20" y="121" width="140" height="80" as="geometry" />
          </mxCell>
        </object>
        <object label="Users&amp;nbsp;need to navigate to a game end screen after completing the quiz." placeholders="1" id="hzokEQ0apqbDC5ZF1zKa-55">
          <mxCell style="whiteSpace=wrap;html=1;strokeWidth=2;fillColor=#ffe6cc;fontStyle=1;spacingTop=0;rounded=1;arcSize=9;points=[];sketch=1;fontFamily=Courier New;hachureGap=8;fillWeight=1;strokeColor=#d79b00;fillStyle=solid;" parent="_5mSTuPxr-ZiKRkBDSY7-9" vertex="1">
            <mxGeometry x="20" y="221" width="140" height="80" as="geometry" />
          </mxCell>
        </object>
        <object label="Sprint IV" status="Completed" id="hzokEQ0apqbDC5ZF1zKa-7">
          <mxCell style="swimlane;strokeWidth=2;fontFamily=Courier New;html=0;startSize=1;verticalAlign=bottom;spacingBottom=5;points=[];childLayout=stackLayout;stackBorder=20;stackSpacing=20;resizeLast=0;resizeParent=1;horizontalStack=0;collapsible=0;sketch=1;strokeColor=none;fillStyle=solid;fillColor=#1BA1E2;" parent="_5mSTuPxr-ZiKRkBDSY7-1" vertex="1">
            <mxGeometry x="540" y="28" width="180" height="722" as="geometry" />
          </mxCell>
        </object>
        <object label="Dev&amp;nbsp;team needs access to data on project build." placeholders="1" id="hzokEQ0apqbDC5ZF1zKa-8">
          <mxCell style="whiteSpace=wrap;html=1;strokeWidth=2;fillColor=#f8cecc;fontStyle=1;spacingTop=0;rounded=1;arcSize=9;points=[];sketch=1;fontFamily=Courier New;hachureGap=8;fillWeight=1;strokeColor=#b85450;fillStyle=solid;" parent="hzokEQ0apqbDC5ZF1zKa-7" vertex="1">
            <mxGeometry x="20" y="21" width="140" height="80" as="geometry" />
          </mxCell>
        </object>
        <object label="Dev&amp;nbsp;team needs a framework for unit testing." placeholders="1" id="i4JEPYIXqA7OoXjIHl6u-1">
          <mxCell style="whiteSpace=wrap;html=1;strokeWidth=2;fillColor=#f8cecc;fontStyle=1;spacingTop=0;rounded=1;arcSize=9;points=[];sketch=1;fontFamily=Courier New;hachureGap=8;fillWeight=1;strokeColor=#b85450;fillStyle=solid;" parent="hzokEQ0apqbDC5ZF1zKa-7" vertex="1">
            <mxGeometry x="20" y="121" width="140" height="80" as="geometry" />
          </mxCell>
        </object>
        <object label="Users&lt;br&gt;need to be able to share website and results." placeholders="1" id="i4JEPYIXqA7OoXjIHl6u-12">
          <mxCell style="whiteSpace=wrap;html=1;strokeWidth=2;fontStyle=1;spacingTop=0;rounded=1;arcSize=9;points=[];sketch=1;fontFamily=Courier New;hachureGap=8;fillWeight=1;fillColor=none;strokeColor=none;noLabel=1;fontColor=none;" parent="hzokEQ0apqbDC5ZF1zKa-7" vertex="1">
            <mxGeometry x="20" y="221" width="140" height="80" as="geometry" />
          </mxCell>
        </object>
        <object label="Sprint V" status="Completed" id="hzokEQ0apqbDC5ZF1zKa-14">
          <mxCell style="swimlane;strokeWidth=2;fontFamily=Courier New;html=0;startSize=1;verticalAlign=bottom;spacingBottom=5;points=[];childLayout=stackLayout;stackBorder=20;stackSpacing=20;resizeLast=0;resizeParent=1;horizontalStack=0;collapsible=0;sketch=1;strokeColor=none;fillStyle=solid;fillColor=#1BA1E2;" parent="_5mSTuPxr-ZiKRkBDSY7-1" vertex="1">
            <mxGeometry x="720" y="28" width="180" height="722" as="geometry" />
          </mxCell>
        </object>
        <object label="Potential users can offer feedback on the current website." placeholders="1" id="hzokEQ0apqbDC5ZF1zKa-15">
          <mxCell style="whiteSpace=wrap;html=1;strokeWidth=2;fillColor=#e1d5e7;fontStyle=1;spacingTop=0;rounded=1;arcSize=9;points=[];sketch=1;fontFamily=Courier New;hachureGap=8;fillWeight=1;strokeColor=#9673a6;fillStyle=solid;" parent="hzokEQ0apqbDC5ZF1zKa-14" vertex="1">
            <mxGeometry x="20" y="21" width="140" height="80" as="geometry" />
          </mxCell>
        </object>
        <object label="Sprint VI" status="Completed" id="hzokEQ0apqbDC5ZF1zKa-21">
          <mxCell style="swimlane;strokeWidth=2;fontFamily=Courier New;html=0;startSize=1;verticalAlign=bottom;spacingBottom=5;points=[];childLayout=stackLayout;stackBorder=20;stackSpacing=20;resizeLast=0;resizeParent=1;horizontalStack=0;collapsible=0;sketch=1;strokeColor=none;fillStyle=solid;fillColor=#1BA1E2;" parent="_5mSTuPxr-ZiKRkBDSY7-1" vertex="1">
            <mxGeometry x="900" y="28" width="180" height="722" as="geometry" />
          </mxCell>
        </object>
        <object label="Finish write-up for project" placeholders="1" id="hzokEQ0apqbDC5ZF1zKa-22">
          <mxCell style="whiteSpace=wrap;html=1;strokeWidth=2;fillColor=#d5e8d4;fontStyle=1;spacingTop=0;rounded=1;arcSize=9;points=[];sketch=1;fontFamily=Courier New;hachureGap=8;fillWeight=1;strokeColor=#82b366;fillStyle=solid;" parent="hzokEQ0apqbDC5ZF1zKa-21" vertex="1">
            <mxGeometry x="20" y="21" width="140" height="80" as="geometry" />
          </mxCell>
        </object>
        <object label="Users&amp;nbsp;need to see quiz results and review answers." placeholders="1" id="i4JEPYIXqA7OoXjIHl6u-14">
          <mxCell style="whiteSpace=wrap;html=1;strokeWidth=2;fillColor=#ffe6cc;fontStyle=1;spacingTop=0;rounded=1;arcSize=9;points=[];sketch=1;fontFamily=Courier New;hachureGap=8;fillWeight=1;strokeColor=#d79b00;fillStyle=solid;" parent="1" vertex="1">
            <mxGeometry x="540" y="429" width="680" height="80" as="geometry" />
          </mxCell>
        </object>
        <object label="&lt;span&gt;Everyone needs to be able to&lt;br&gt;     review an initial write up of project documentation.&lt;br&gt;&lt;/span&gt;" placeholders="1" id="i4JEPYIXqA7OoXjIHl6u-16">
          <mxCell style="whiteSpace=wrap;html=1;strokeWidth=2;fillColor=#f8cecc;fontStyle=1;spacingTop=0;rounded=1;arcSize=9;points=[];sketch=1;fontFamily=Courier New;hachureGap=8;fillWeight=1;strokeColor=#b85450;fillStyle=solid;" parent="1" vertex="1">
            <mxGeometry x="720" y="729" width="320" height="80" as="geometry" />
          </mxCell>
        </object>
        <object label="&lt;span&gt;Users&amp;nbsp;&lt;/span&gt;&lt;span&gt;need to be able to use the website on multiple devices.&lt;/span&gt;" placeholders="1" id="i4JEPYIXqA7OoXjIHl6u-15">
          <mxCell style="whiteSpace=wrap;html=1;strokeWidth=2;fillColor=#f8cecc;fontStyle=1;spacingTop=0;rounded=1;arcSize=9;points=[];sketch=1;fontFamily=Courier New;hachureGap=8;fillWeight=1;strokeColor=#b85450;fillStyle=solid;" parent="1" vertex="1">
            <mxGeometry x="720" y="629" width="500" height="80" as="geometry" />
          </mxCell>
        </object>
        <object label="Users&amp;nbsp;need to be able to share website and results." placeholders="1" id="i4JEPYIXqA7OoXjIHl6u-13">
          <mxCell style="whiteSpace=wrap;html=1;strokeWidth=2;fillColor=#f8cecc;fontStyle=1;spacingTop=0;rounded=1;arcSize=9;points=[];sketch=1;fontFamily=Courier New;hachureGap=8;fillWeight=1;strokeColor=#b85450;fillStyle=solid;" parent="1" vertex="1">
            <mxGeometry x="720" y="528" width="320" height="80" as="geometry" />
          </mxCell>
        </object>
        <object label="Users&amp;nbsp;need an application with persistent storage." placeholders="1" id="i4JEPYIXqA7OoXjIHl6u-22">
          <mxCell style="whiteSpace=wrap;html=1;strokeWidth=2;fillColor=#d5e8d4;fontStyle=1;spacingTop=0;rounded=1;arcSize=9;points=[];sketch=1;fontFamily=Courier New;hachureGap=8;fillWeight=1;strokeColor=#82b366;fillStyle=solid;" parent="1" vertex="1">
            <mxGeometry x="180" y="529" width="320" height="80" as="geometry" />
          </mxCell>
        </object>
        <object label="Users need a visual representation for sugar content." placeholders="1" id="i4JEPYIXqA7OoXjIHl6u-17">
          <mxCell style="whiteSpace=wrap;html=1;strokeWidth=2;fillColor=#e1d5e7;fontStyle=1;spacingTop=0;rounded=1;arcSize=9;points=[];sketch=1;fontFamily=Courier New;hachureGap=8;fillWeight=1;strokeColor=#9673a6;fillStyle=solid;" parent="1" vertex="1">
            <mxGeometry x="900" y="229" width="320" height="80" as="geometry" />
          </mxCell>
        </object>
        <object label="Create video for project" placeholders="1" id="TpIvQlDU-tuIQHzQfosJ-4">
          <mxCell style="whiteSpace=wrap;html=1;strokeWidth=2;fillColor=#d5e8d4;fontStyle=1;spacingTop=0;rounded=1;arcSize=9;points=[];sketch=1;fontFamily=Courier New;hachureGap=8;fillWeight=1;strokeColor=#82b366;fillStyle=solid;" vertex="1" parent="1">
            <mxGeometry x="1080" y="529" width="140" height="80" as="geometry" />
          </mxCell>
        </object>
        <object label="Users need appealing visuals on the website." placeholders="1" id="i4JEPYIXqA7OoXjIHl6u-2">
          <mxCell style="whiteSpace=wrap;html=1;strokeWidth=2;fillColor=#f8cecc;fontStyle=1;spacingTop=0;rounded=1;arcSize=9;points=[];sketch=1;fontFamily=Courier New;hachureGap=8;fillWeight=1;strokeColor=#b85450;fillStyle=solid;" parent="1" vertex="1">
            <mxGeometry x="720" y="329" width="500" height="80" as="geometry" />
          </mxCell>
        </object>
      </root>
    </mxGraphModel>
  </diagram>
</mxfile>
